<mxfile host="app.diagrams.net" modified="2021-11-12T17:32:59.643Z" agent="5.0 (Windows NT 10.0; Win64; x64) AppleWebKit/537.36 (KHTML, like Gecko) Chrome/95.0.4638.69 Safari/537.36" etag="V7E25BeFCGMwRAJZmteB" version="14.8.0" type="github">
  <diagram id="prtHgNgQTEPvFCAcTncT" name="Page-1">
    <mxGraphModel dx="1422" dy="1963" grid="1" gridSize="10" guides="1" tooltips="1" connect="1" arrows="1" fold="1" page="1" pageScale="1" pageWidth="827" pageHeight="1169" math="0" shadow="0">
      <root>
        <mxCell id="0" />
        <mxCell id="1" parent="0" />
        <mxCell id="dNxyNK7c78bLwvsdeMH5-19" value="Economic Operator" style="swimlane;html=1;childLayout=stackLayout;resizeParent=1;resizeParentMax=0;horizontal=0;startSize=20;horizontalStack=0;" parent="1" vertex="1">
          <mxGeometry x="120" y="60" width="670" height="220" as="geometry" />
        </mxCell>
        <mxCell id="dNxyNK7c78bLwvsdeMH5-20" value="Data entry Agent&lt;br&gt;" style="swimlane;html=1;startSize=20;horizontal=0;" parent="dNxyNK7c78bLwvsdeMH5-19" vertex="1">
          <mxGeometry x="20" width="650" height="220" as="geometry" />
        </mxCell>
        <mxCell id="yNIdSLd-yYrXgGybyY_E-29" value="" style="shape=mxgraph.bpmn.task;part=1;taskMarker=abstract;rectStyle=rounded;isLoopSub=0;topLeftStyle=square;topRightStyle=square;whiteSpace=wrap;" vertex="1" parent="dNxyNK7c78bLwvsdeMH5-20">
          <mxGeometry x="240" y="90" width="120" height="20" as="geometry" />
        </mxCell>
        <mxCell id="yNIdSLd-yYrXgGybyY_E-65" value="" style="points=[[0.145,0.145,0],[0.5,0,0],[0.855,0.145,0],[1,0.5,0],[0.855,0.855,0],[0.5,1,0],[0.145,0.855,0],[0,0.5,0]];shape=mxgraph.bpmn.event;html=1;verticalLabelPosition=bottom;labelBackgroundColor=#ffffff;verticalAlign=top;align=center;perimeter=ellipsePerimeter;outlineConnect=0;aspect=fixed;outline=end;symbol=terminate;" vertex="1" parent="dNxyNK7c78bLwvsdeMH5-20">
          <mxGeometry x="490" y="55" width="50" height="50" as="geometry" />
        </mxCell>
        <mxCell id="yNIdSLd-yYrXgGybyY_E-73" value="" style="rounded=1;whiteSpace=wrap;html=1;container=1;collapsible=0;absoluteArcSize=1;arcSize=20;childLayout=stackLayout;horizontal=1;horizontalStack=0;resizeParent=1;resizeParentMax=0;resizeLast=0;" vertex="1" parent="dNxyNK7c78bLwvsdeMH5-20">
          <mxGeometry x="100" y="40" width="120" height="100" as="geometry" />
        </mxCell>
        <mxCell id="yNIdSLd-yYrXgGybyY_E-74" value="" style="whiteSpace=wrap;connectable=0;html=1;shape=mxgraph.basic.rect;size=10;rectStyle=rounded;bottomRightStyle=square;bottomLeftStyle=square;part=1;" vertex="1" parent="yNIdSLd-yYrXgGybyY_E-73">
          <mxGeometry width="120" height="20" as="geometry" />
        </mxCell>
        <mxCell id="yNIdSLd-yYrXgGybyY_E-75" value="Prepare Business Registration Information" style="shape=mxgraph.bpmn.task;part=1;taskMarker=abstract;connectable=0;whiteSpace=wrap;" vertex="1" parent="yNIdSLd-yYrXgGybyY_E-73">
          <mxGeometry y="20" width="120" height="60" as="geometry" />
        </mxCell>
        <mxCell id="yNIdSLd-yYrXgGybyY_E-76" value="" style="whiteSpace=wrap;connectable=0;html=1;shape=mxgraph.basic.rect;size=10;rectStyle=rounded;topRightStyle=square;topLeftStyle=square;fillColor=#C0C0C0;part=1;" vertex="1" parent="yNIdSLd-yYrXgGybyY_E-73">
          <mxGeometry y="80" width="120" height="20" as="geometry" />
        </mxCell>
        <mxCell id="yNIdSLd-yYrXgGybyY_E-9" value="Registration Authority" style="swimlane;html=1;childLayout=stackLayout;resizeParent=1;resizeParentMax=0;horizontal=0;startSize=20;horizontalStack=0;" vertex="1" parent="1">
          <mxGeometry x="120" y="360" width="670" height="180" as="geometry" />
        </mxCell>
        <mxCell id="yNIdSLd-yYrXgGybyY_E-21" value="System" style="swimlane;html=1;startSize=20;horizontal=0;" vertex="1" parent="yNIdSLd-yYrXgGybyY_E-9">
          <mxGeometry x="20" width="650" height="180" as="geometry" />
        </mxCell>
        <mxCell id="yNIdSLd-yYrXgGybyY_E-22" value="" style="edgeStyle=orthogonalEdgeStyle;rounded=0;orthogonalLoop=1;jettySize=auto;html=1;endArrow=classic;endFill=1;" edge="1" parent="yNIdSLd-yYrXgGybyY_E-21" target="yNIdSLd-yYrXgGybyY_E-24">
          <mxGeometry relative="1" as="geometry">
            <mxPoint x="365" y="110" as="sourcePoint" />
          </mxGeometry>
        </mxCell>
        <mxCell id="yNIdSLd-yYrXgGybyY_E-24" value="" style="rhombus;whiteSpace=wrap;html=1;fontFamily=Helvetica;fontSize=12;fontColor=#000000;align=center;" vertex="1" parent="yNIdSLd-yYrXgGybyY_E-21">
          <mxGeometry x="385" y="90" width="40" height="40" as="geometry" />
        </mxCell>
        <mxCell id="yNIdSLd-yYrXgGybyY_E-38" value="" style="rounded=1;whiteSpace=wrap;html=1;container=1;collapsible=0;absoluteArcSize=1;arcSize=20;childLayout=stackLayout;horizontal=1;horizontalStack=0;resizeParent=1;resizeParentMax=0;resizeLast=0;" vertex="1" parent="yNIdSLd-yYrXgGybyY_E-21">
          <mxGeometry x="239" y="60" width="120" height="100" as="geometry" />
        </mxCell>
        <mxCell id="yNIdSLd-yYrXgGybyY_E-39" value="" style="whiteSpace=wrap;connectable=0;html=1;shape=mxgraph.basic.rect;size=10;rectStyle=rounded;bottomRightStyle=square;bottomLeftStyle=square;part=1;" vertex="1" parent="yNIdSLd-yYrXgGybyY_E-38">
          <mxGeometry width="120" height="20" as="geometry" />
        </mxCell>
        <mxCell id="yNIdSLd-yYrXgGybyY_E-40" value="Check Business Registration Information" style="shape=mxgraph.bpmn.task;part=1;taskMarker=abstract;connectable=0;whiteSpace=wrap;" vertex="1" parent="yNIdSLd-yYrXgGybyY_E-38">
          <mxGeometry y="20" width="120" height="60" as="geometry" />
        </mxCell>
        <mxCell id="yNIdSLd-yYrXgGybyY_E-41" value="" style="whiteSpace=wrap;connectable=0;html=1;shape=mxgraph.basic.rect;size=10;rectStyle=rounded;topRightStyle=square;topLeftStyle=square;fillColor=#C0C0C0;part=1;" vertex="1" parent="yNIdSLd-yYrXgGybyY_E-38">
          <mxGeometry y="80" width="120" height="20" as="geometry" />
        </mxCell>
        <mxCell id="yNIdSLd-yYrXgGybyY_E-43" value="" style="rounded=1;whiteSpace=wrap;html=1;container=1;collapsible=0;absoluteArcSize=1;arcSize=20;childLayout=stackLayout;horizontal=1;horizontalStack=0;resizeParent=1;resizeParentMax=0;resizeLast=0;" vertex="1" parent="yNIdSLd-yYrXgGybyY_E-21">
          <mxGeometry x="460" y="60" width="110" height="100" as="geometry" />
        </mxCell>
        <mxCell id="yNIdSLd-yYrXgGybyY_E-44" value="" style="whiteSpace=wrap;connectable=0;html=1;shape=mxgraph.basic.rect;size=10;rectStyle=rounded;bottomRightStyle=square;bottomLeftStyle=square;part=1;" vertex="1" parent="yNIdSLd-yYrXgGybyY_E-43">
          <mxGeometry width="110" height="20" as="geometry" />
        </mxCell>
        <mxCell id="yNIdSLd-yYrXgGybyY_E-45" value="Publish Business Registration Information" style="shape=mxgraph.bpmn.task;part=1;taskMarker=abstract;connectable=0;whiteSpace=wrap;" vertex="1" parent="yNIdSLd-yYrXgGybyY_E-43">
          <mxGeometry y="20" width="110" height="60" as="geometry" />
        </mxCell>
        <mxCell id="yNIdSLd-yYrXgGybyY_E-46" value="" style="whiteSpace=wrap;connectable=0;html=1;shape=mxgraph.basic.rect;size=10;rectStyle=rounded;topRightStyle=square;topLeftStyle=square;fillColor=#C0C0C0;part=1;" vertex="1" parent="yNIdSLd-yYrXgGybyY_E-43">
          <mxGeometry y="80" width="110" height="20" as="geometry" />
        </mxCell>
        <mxCell id="yNIdSLd-yYrXgGybyY_E-12" style="edgeStyle=orthogonalEdgeStyle;rounded=0;orthogonalLoop=1;jettySize=auto;html=1;endArrow=classic;endFill=1;exitX=1;exitY=0.5;exitDx=0;exitDy=0;" edge="1" parent="yNIdSLd-yYrXgGybyY_E-21" source="yNIdSLd-yYrXgGybyY_E-24">
          <mxGeometry relative="1" as="geometry">
            <mxPoint x="459" y="110" as="targetPoint" />
            <Array as="points">
              <mxPoint x="430" y="110" />
              <mxPoint x="430" y="110" />
            </Array>
          </mxGeometry>
        </mxCell>
        <mxCell id="yNIdSLd-yYrXgGybyY_E-37" style="edgeStyle=orthogonalEdgeStyle;rounded=0;orthogonalLoop=1;jettySize=auto;html=1;entryX=0.5;entryY=0;entryDx=0;entryDy=0;" edge="1" parent="1" source="yNIdSLd-yYrXgGybyY_E-30" target="yNIdSLd-yYrXgGybyY_E-38">
          <mxGeometry relative="1" as="geometry">
            <mxPoint x="430" y="420" as="targetPoint" />
            <Array as="points">
              <mxPoint x="440" y="385" />
              <mxPoint x="439" y="385" />
            </Array>
          </mxGeometry>
        </mxCell>
        <object label="" id="yNIdSLd-yYrXgGybyY_E-30">
          <mxCell style="shape=message;" vertex="1" parent="1">
            <mxGeometry x="420" y="308" width="40" height="30" as="geometry" />
          </mxCell>
        </object>
        <mxCell id="yNIdSLd-yYrXgGybyY_E-31" value="" style="edgeStyle=orthogonalEdgeStyle;html=1;elbow=horizontal;endArrow=none;labelBackgroundColor=none;endSize=12;endFill=0;dashed=1;dashPattern=1 2;exitX=0.5;exitY=1;rounded=0;" edge="1" source="yNIdSLd-yYrXgGybyY_E-29" target="yNIdSLd-yYrXgGybyY_E-30" parent="1">
          <mxGeometry relative="1" as="geometry" />
        </mxCell>
        <mxCell id="yNIdSLd-yYrXgGybyY_E-50" value="" style="shape=mxgraph.bpmn.task;part=1;taskMarker=abstract;rectStyle=rounded;bottomRightStyle=square;bottomLeftStyle=square;whiteSpace=wrap;" vertex="1" parent="1">
          <mxGeometry x="600" y="410" width="110" height="20" as="geometry" />
        </mxCell>
        <mxCell id="yNIdSLd-yYrXgGybyY_E-51" value="" style="shape=message;" vertex="1" parent="1">
          <mxGeometry x="635" y="308" width="40" height="30" as="geometry" />
        </mxCell>
        <mxCell id="yNIdSLd-yYrXgGybyY_E-52" value="" style="edgeStyle=orthogonalEdgeStyle;html=1;elbow=horizontal;endArrow=none;labelBackgroundColor=none;endSize=12;endFill=0;dashed=1;dashPattern=1 2;exitX=0.5;exitY=0;rounded=0;" edge="1" source="yNIdSLd-yYrXgGybyY_E-50" target="yNIdSLd-yYrXgGybyY_E-51" parent="1">
          <mxGeometry relative="1" as="geometry" />
        </mxCell>
        <mxCell id="dNxyNK7c78bLwvsdeMH5-31" style="edgeStyle=orthogonalEdgeStyle;rounded=0;orthogonalLoop=1;jettySize=auto;html=1;endArrow=classic;endFill=1;exitX=0.5;exitY=0;exitDx=0;exitDy=0;" parent="1" source="yNIdSLd-yYrXgGybyY_E-51" edge="1">
          <mxGeometry relative="1" as="geometry">
            <mxPoint x="630" y="410" as="sourcePoint" />
            <mxPoint x="655" y="170" as="targetPoint" />
            <Array as="points">
              <mxPoint x="655" y="160" />
            </Array>
          </mxGeometry>
        </mxCell>
        <mxCell id="yNIdSLd-yYrXgGybyY_E-53" value="Data entry Agent&lt;br&gt;" style="swimlane;html=1;startSize=20;horizontal=0;" vertex="1" parent="1">
          <mxGeometry x="140" y="60" width="650" height="210" as="geometry" />
        </mxCell>
        <mxCell id="yNIdSLd-yYrXgGybyY_E-54" value="" style="edgeStyle=orthogonalEdgeStyle;rounded=0;orthogonalLoop=1;jettySize=auto;html=1;" edge="1" parent="yNIdSLd-yYrXgGybyY_E-53" source="yNIdSLd-yYrXgGybyY_E-55">
          <mxGeometry relative="1" as="geometry">
            <mxPoint x="100" y="85" as="targetPoint" />
          </mxGeometry>
        </mxCell>
        <mxCell id="yNIdSLd-yYrXgGybyY_E-55" value="" style="ellipse;whiteSpace=wrap;html=1;" vertex="1" parent="yNIdSLd-yYrXgGybyY_E-53">
          <mxGeometry x="40" y="65" width="40" height="40" as="geometry" />
        </mxCell>
        <mxCell id="yNIdSLd-yYrXgGybyY_E-56" style="edgeStyle=orthogonalEdgeStyle;rounded=0;orthogonalLoop=1;jettySize=auto;html=1;" edge="1" parent="yNIdSLd-yYrXgGybyY_E-53" target="yNIdSLd-yYrXgGybyY_E-61">
          <mxGeometry relative="1" as="geometry">
            <mxPoint x="230" y="85" as="sourcePoint" />
          </mxGeometry>
        </mxCell>
        <mxCell id="yNIdSLd-yYrXgGybyY_E-61" value="" style="rounded=1;whiteSpace=wrap;html=1;container=1;collapsible=0;absoluteArcSize=1;arcSize=20;childLayout=stackLayout;horizontal=1;horizontalStack=0;resizeParent=1;resizeParentMax=0;resizeLast=0;" vertex="1" parent="yNIdSLd-yYrXgGybyY_E-53">
          <mxGeometry x="240" y="35" width="120" height="100" as="geometry" />
        </mxCell>
        <mxCell id="yNIdSLd-yYrXgGybyY_E-62" value="" style="whiteSpace=wrap;connectable=0;html=1;shape=mxgraph.basic.rect;size=10;rectStyle=rounded;bottomRightStyle=square;bottomLeftStyle=square;part=1;" vertex="1" parent="yNIdSLd-yYrXgGybyY_E-61">
          <mxGeometry width="120" height="20" as="geometry" />
        </mxCell>
        <mxCell id="yNIdSLd-yYrXgGybyY_E-63" value="Submit Business Registration Information" style="shape=mxgraph.bpmn.task;part=1;taskMarker=abstract;connectable=0;whiteSpace=wrap;" vertex="1" parent="yNIdSLd-yYrXgGybyY_E-61">
          <mxGeometry y="20" width="120" height="60" as="geometry" />
        </mxCell>
        <mxCell id="yNIdSLd-yYrXgGybyY_E-64" value="" style="whiteSpace=wrap;connectable=0;html=1;shape=mxgraph.basic.rect;size=10;rectStyle=rounded;topRightStyle=square;topLeftStyle=square;fillColor=#C0C0C0;part=1;" vertex="1" parent="yNIdSLd-yYrXgGybyY_E-61">
          <mxGeometry y="80" width="120" height="20" as="geometry" />
        </mxCell>
        <mxCell id="yNIdSLd-yYrXgGybyY_E-72" style="edgeStyle=orthogonalEdgeStyle;rounded=0;orthogonalLoop=1;jettySize=auto;html=1;exitX=0.5;exitY=0;exitDx=0;exitDy=0;" edge="1" parent="1">
          <mxGeometry relative="1" as="geometry">
            <mxPoint x="545" y="313" as="sourcePoint" />
            <mxPoint x="300" y="100" as="targetPoint" />
            <Array as="points">
              <mxPoint x="545" y="80" />
              <mxPoint x="300" y="80" />
            </Array>
          </mxGeometry>
        </mxCell>
        <mxCell id="yNIdSLd-yYrXgGybyY_E-70" value="" style="shape=message;" vertex="1" parent="1">
          <mxGeometry x="525" y="308" width="40" height="30" as="geometry" />
        </mxCell>
        <mxCell id="yNIdSLd-yYrXgGybyY_E-71" style="edgeStyle=orthogonalEdgeStyle;rounded=0;orthogonalLoop=1;jettySize=auto;html=1;entryX=0.5;entryY=1;entryDx=0;entryDy=0;" edge="1" parent="1" source="yNIdSLd-yYrXgGybyY_E-24" target="yNIdSLd-yYrXgGybyY_E-70">
          <mxGeometry relative="1" as="geometry" />
        </mxCell>
        <mxCell id="yNIdSLd-yYrXgGybyY_E-78" value="Business Information Registration Notification" style="text;strokeColor=none;fillColor=none;html=1;fontSize=24;fontStyle=1;verticalAlign=middle;align=center;" vertex="1" parent="1">
          <mxGeometry x="370" y="-20" width="100" height="40" as="geometry" />
        </mxCell>
      </root>
    </mxGraphModel>
  </diagram>
</mxfile>
